<svg width="584" height="278" viewBox="0 0 584 278" fill="none" xmlns="http://www.w3.org/2000/svg">
<path d="M267 0C209.54 0 161.756 40.8897 151.875 94.8008C114.595 102.13 86.323 131.004 84.1377 166.116C37.1644 167.995 0 192.298 0 222C0 252.928 40.2944 278 90 278C90.6684 278 91.3351 277.993 92 277.984V278H547V277.91C547.826 277.968 548.659 278 549.5 278C568.554 278 584 262.778 584 244C584 225.612 569.188 210.635 550.682 210.021C547.671 181.905 523.666 160 494.5 160C487.607 160 481.003 161.224 474.896 163.464C472.755 122.538 438.251 90 396 90C391.022 90 386.152 90.4526 381.43 91.3164C370.169 39.1376 323.215 0 267 0Z" fill="url(#paint0_linear_84_107)"/>
<defs>
<linearGradient id="paint0_linear_84_107" x1="267" y1="71.5" x2="307.318" y2="287.091" gradientUnits="userSpaceOnUse">
<stop stop-color="white"/>
<stop offset="1" stop-color="white" stop-opacity="0"/>
</linearGradient>
</defs>
</svg>
