<svg width="617" height="273" viewBox="0 0 617 273" fill="none" xmlns="http://www.w3.org/2000/svg">
<path d="M238.5 0C312.942 0 375.691 42.0472 394.928 99.4102C406.417 92.7903 419.763 89 434 89C475.69 89 509.739 121.497 511.891 162.388C518.036 161.48 524.432 161 531 161C578.496 161 617 186.072 617 217C617 243.908 587.855 266.382 549 271.771V273H39V272.712C37.5271 272.901 36.0252 273 34.5 273C15.4462 273 0 257.778 0 239C0 224.627 9.04998 212.336 21.8408 207.361C20.6382 202.436 20 197.292 20 192C20 159.187 44.5007 132.053 76.3379 127.631C81.7781 56.3777 152.301 0 238.5 0Z" fill="url(#paint0_linear_84_117)"/>
<defs>
<linearGradient id="paint0_linear_84_117" x1="285" y1="33.5" x2="187" y2="321" gradientUnits="userSpaceOnUse">
<stop stop-color="white" stop-opacity="0.8"/>
<stop offset="1" stop-color="white" stop-opacity="0"/>
</linearGradient>
</defs>
</svg>
