<svg width="445" height="227" viewBox="0 0 445 227" fill="none" xmlns="http://www.w3.org/2000/svg">
<path d="M204.812 0C234.87 0 260.607 18.2609 271.258 44.1562C277.11 42.0884 283.419 40.9619 289.995 40.9619C314.923 40.9621 336.002 57.152 342.955 79.4199C348.822 77.4235 355.122 76.3389 361.679 76.3389C393.299 76.3389 418.933 101.556 418.933 132.662C418.933 137.196 418.387 141.604 417.358 145.828C433.479 151.595 445 166.864 445 184.796C445 207.676 426.243 226.224 403.106 226.224C401.212 226.224 399.348 226.096 397.521 225.855V226.224H126.611V224.756C119.698 225.717 112.536 226.224 105.199 226.224C47.0997 226.224 0.00017168 194.546 0 155.471C0 116.395 47.0996 84.7178 105.199 84.7178C115.616 84.7178 125.679 85.7352 135.181 87.6318C133.839 82.2228 133.128 76.5699 133.128 70.7529C133.128 31.6771 165.222 9.76859e-05 204.812 0Z" fill="url(#paint0_linear_84_100)"/>
<defs>
<linearGradient id="paint0_linear_84_100" x1="230" y1="45.5" x2="198" y2="266" gradientUnits="userSpaceOnUse">
<stop offset="0.0883009" stop-color="white"/>
<stop offset="1" stop-color="white" stop-opacity="0"/>
</linearGradient>
</defs>
</svg>
