<svg width="258" height="75" viewBox="0 0 258 75" fill="none" xmlns="http://www.w3.org/2000/svg">
<g clip-path="url(#clip0_83_250)">
<path d="M96.4 46.2571C96.8952 46.2571 97.2762 46.4857 97.5429 46.9429C97.8476 47.4 98 48.0286 98 48.8286C98 50.3524 97.6381 51.5333 96.9143 52.3714C95.2762 54.3905 93.4857 56.0476 91.5429 57.3429C89.6381 58.6381 87.4667 59.2857 85.0286 59.2857C81.6762 59.2857 79.181 57.7619 77.5429 54.7143C75.9429 51.6667 75.1429 47.7238 75.1429 42.8857C75.1429 38.2381 75.7333 32.9429 76.9143 27C78.1333 21.0571 79.9048 15.9524 82.2286 11.6857C84.5905 7.41904 87.3905 5.28571 90.6286 5.28571C92.4571 5.28571 93.8857 6.14285 94.9143 7.85714C95.981 9.53333 96.5143 11.9524 96.5143 15.1143C96.5143 19.6476 95.2571 24.9048 92.7429 30.8857C90.2286 36.8667 86.819 42.7905 82.5143 48.6571C82.781 50.219 83.219 51.3429 83.8286 52.0286C84.4381 52.6762 85.2381 53 86.2286 53C87.7905 53 89.1619 52.5619 90.3429 51.6857C91.5238 50.7714 93.0286 49.2286 94.8571 47.0571C95.3143 46.5238 95.8286 46.2571 96.4 46.2571ZM89.3714 10.9429C88.4952 10.9429 87.5048 12.5238 86.4 15.6857C85.2952 18.8476 84.3238 22.7714 83.4857 27.4571C82.6476 32.1429 82.1905 36.6381 82.1143 40.9429C84.819 36.4857 86.9714 32.0286 88.5714 27.5714C90.1714 23.0762 90.9714 18.981 90.9714 15.2857C90.9714 12.3905 90.4381 10.9429 89.3714 10.9429ZM112.181 50.9429C112.6 50.5619 113.019 50.3714 113.438 50.3714C113.896 50.3714 114.257 50.6381 114.524 51.1714C114.829 51.6667 114.981 52.2762 114.981 53C114.981 54.6 114.41 55.8762 113.267 56.8286C111.286 58.4667 109.038 59.2857 106.524 59.2857C102.905 59.2857 100.257 57.781 98.5812 54.7714C96.9051 51.7238 96.067 47.7619 96.067 42.8857C96.067 38.2381 96.6574 32.9429 97.8384 27C99.0574 21.0571 100.829 15.9524 103.153 11.6857C105.515 7.41904 108.315 5.28571 111.553 5.28571C113.381 5.28571 114.81 6.14285 115.838 7.85714C116.905 9.53333 117.438 11.9524 117.438 15.1143C117.438 19.6476 116.181 24.9048 113.667 30.8857C111.191 36.8667 107.8 42.7714 103.496 48.6C103.762 50.1619 104.238 51.2857 104.924 51.9714C105.61 52.6571 106.543 53 107.724 53C108.372 53 109.096 52.8095 109.896 52.4286C110.734 52.0476 111.496 51.5524 112.181 50.9429ZM110.296 10.9429C109.419 10.9429 108.429 12.5238 107.324 15.6857C106.219 18.8476 105.248 22.7714 104.41 27.4571C103.572 32.1429 103.115 36.6381 103.038 40.9429C105.743 36.4857 107.896 32.0286 109.496 27.5714C111.096 23.0762 111.896 18.981 111.896 15.2857C111.896 12.3905 111.362 10.9429 110.296 10.9429Z" fill="#417CFF"/>
<path d="M29.4857 15H36.7143V59H29.4857V39.9543H10.6286V59H3.4V15H10.6286V33.04H29.4857V15ZM47.2694 46.1771C47.7722 48.5657 48.9246 50.4095 50.7265 51.7086C52.5284 52.9657 54.7284 53.5943 57.3265 53.5943C60.9303 53.5943 63.6332 52.2952 65.4351 49.6971L71.0294 52.9657C67.9284 57.5333 63.3399 59.8171 57.2637 59.8171C52.1513 59.8171 48.0237 58.2667 44.8808 55.1657C41.7379 52.0229 40.1665 48.0629 40.1665 43.2857C40.1665 38.5924 41.717 34.6743 44.8179 31.5314C47.9189 28.3467 51.8999 26.7543 56.7608 26.7543C61.3703 26.7543 65.1418 28.3676 68.0751 31.5943C71.0503 34.821 72.5379 38.739 72.5379 43.3486C72.5379 44.061 72.4541 45.0038 72.2865 46.1771H47.2694ZM47.2065 40.6457H65.6865C65.2256 38.0895 64.157 36.1619 62.4808 34.8629C60.8465 33.5638 58.9189 32.9143 56.6979 32.9143C54.1837 32.9143 52.0884 33.6057 50.4122 34.9886C48.736 36.3714 47.6675 38.2571 47.2065 40.6457Z" fill="#417CFF"/>
<path d="M127.794 59.8171C123.185 59.8171 119.267 58.2248 116.04 55.04C112.813 51.8552 111.2 47.9371 111.2 43.2857C111.2 38.6343 112.813 34.7162 116.04 31.5314C119.267 28.3467 123.185 26.7543 127.794 26.7543C132.446 26.7543 136.364 28.3467 139.549 31.5314C142.775 34.7162 144.389 38.6343 144.389 43.2857C144.389 47.9371 142.775 51.8552 139.549 55.04C136.364 58.2248 132.446 59.8171 127.794 59.8171ZM120.817 50.3886C122.703 52.2743 125.029 53.2171 127.794 53.2171C130.56 53.2171 132.886 52.2743 134.771 50.3886C136.657 48.5029 137.6 46.1352 137.6 43.2857C137.6 40.4362 136.657 38.0686 134.771 36.1829C132.886 34.2971 130.56 33.3543 127.794 33.3543C125.029 33.3543 122.703 34.2971 120.817 36.1829C118.931 38.0686 117.989 40.4362 117.989 43.2857C117.989 46.1352 118.931 48.5029 120.817 50.3886ZM171.773 59.8171C165.152 59.8171 159.662 57.6381 155.304 53.28C150.946 48.88 148.767 43.4533 148.767 37C148.767 30.5467 150.946 25.141 155.304 20.7829C159.662 16.3829 165.152 14.1829 171.773 14.1829C175.754 14.1829 179.42 15.1257 182.773 17.0114C186.167 18.8971 188.807 21.4533 190.693 24.68L184.407 28.3257C183.234 26.1467 181.516 24.4286 179.253 23.1714C177.032 21.8724 174.538 21.2229 171.773 21.2229C167.079 21.2229 163.266 22.7105 160.333 25.6857C157.441 28.661 155.996 32.4324 155.996 37C155.996 41.5676 157.441 45.339 160.333 48.3143C163.266 51.2895 167.079 52.7771 171.773 52.7771C174.538 52.7771 177.053 52.1486 179.316 50.8914C181.578 49.5924 183.276 47.8533 184.407 45.6743L190.693 49.2571C188.849 52.4838 186.23 55.061 182.836 56.9886C179.483 58.8743 175.796 59.8171 171.773 59.8171ZM199.833 21.6C198.995 22.4381 197.99 22.8571 196.816 22.8571C195.643 22.8571 194.616 22.4381 193.736 21.6C192.898 20.72 192.479 19.6933 192.479 18.52C192.479 17.3467 192.898 16.3409 193.736 15.5029C194.574 14.6229 195.601 14.1829 196.816 14.1829C198.032 14.1829 199.058 14.6229 199.896 15.5029C200.734 16.3409 201.153 17.3467 201.153 18.52C201.153 19.6933 200.713 20.72 199.833 21.6ZM193.422 59V27.5714H200.211V59H193.422ZM222.487 34.1086H214.693V49.1943C214.693 50.4933 214.986 51.4362 215.573 52.0229C216.159 52.5676 217.019 52.8819 218.15 52.9657C219.323 53.0076 220.769 52.9867 222.487 52.9029V59C217.291 59.6286 213.561 59.1886 211.299 57.68C209.036 56.1295 207.904 53.301 207.904 49.1943V34.1086H202.121V27.5714H207.904V20.7829L214.693 18.7714V27.5714H222.487V34.1086ZM247.298 27.5714H254.527L242.458 60.0057C239.441 68.1352 234.328 71.9905 227.121 71.5714V65.2229C229.258 65.3486 230.976 64.8876 232.275 63.84C233.574 62.8343 234.643 61.2419 235.481 59.0629L235.795 58.4343L222.469 27.5714H229.887L239.252 50.3886L247.298 27.5714Z" fill="#417CFF"/>
</g>
<defs>
<clipPath id="clip0_83_250">
<rect width="258" height="75" fill="white"/>
</clipPath>
</defs>
</svg>
